# xmcd CD database file
#
# Track frame offsets:
#	150
#	24375
#	38193
#	64021
#	85166
#	121786
#	151792
#	179432
#	211479
#	237723
#	261385
#	287307
#
# Disc length: 4476 seconds
#
# Revision: 0
# Processed by: cddbd v1.5.1PL2 Copyright (c) Steve Scherf et al.
# Submitted via: CDex 1.51
#
DISCID=a0117a0c
DTITLE=Tineke Postma - For The Rhythm
DYEAR=2005
DGENRE=Jazz
TTITLE0=Summersong
TTITLE1=Voyage
TTITLE2=Comprehension
TTITLE3=Pump It Up!
TTITLE4=Dialog
TTITLE5=Song For Sea-Tee
TTITLE6=New Life
TTITLE7=Wandering
TTITLE8=Goodbye
TTITLE9=Love Theme
TTITLE10=For The Rhythm
TTITLE11=Joe's Tune
EXTD=YEAR: 2005
EXTT0=
EXTT1=
EXTT2=
EXTT3=
EXTT4=
EXTT5=
EXTT6=
EXTT7=
EXTT8=
EXTT9=
EXTT10=
EXTT11=
PLAYORDER=
